<svg width="9" height="17" viewBox="0 0 9 17" fill="none" xmlns="http://www.w3.org/2000/svg">
<path d="M0.833513 8.89229H2.59554V16.1527C2.59554 16.2215 2.62286 16.2875 2.67149 16.3362C2.72012 16.3848 2.78607 16.4122 2.85485 16.4122H5.84327C5.91204 16.4122 5.978 16.3848 6.02663 16.3362C6.07526 16.2875 6.10258 16.2215 6.10258 16.1527V8.92632H8.12923C8.19278 8.92622 8.25408 8.90277 8.30149 8.86043C8.3489 8.81809 8.37912 8.75981 8.38642 8.69664L8.6946 6.02343C8.6988 5.98712 8.69528 5.95034 8.68428 5.91548C8.67327 5.88063 8.65503 5.8485 8.63075 5.8212C8.60646 5.79389 8.57669 5.77202 8.54337 5.75703C8.51006 5.74204 8.47395 5.73426 8.43742 5.7342H6.09939V4.05946C6.09939 3.55437 6.37146 3.29811 6.90708 3.29811H8.43317C8.50194 3.29811 8.56789 3.27078 8.61652 3.22212C8.66515 3.17346 8.69248 3.10747 8.69248 3.03866V0.585554C8.69305 0.517106 8.66657 0.451206 8.61879 0.402211C8.57102 0.353215 8.50582 0.325094 8.43742 0.323975L6.33214 0.323975H6.23543C5.26597 0.327398 4.33025 0.680379 3.59983 1.31819C3.25517 1.61956 2.99072 2.00188 2.83026 2.4308C2.66981 2.85972 2.61837 3.32181 2.68056 3.77555V5.73527H0.830319C0.761546 5.73527 0.695593 5.7626 0.646963 5.81126C0.598333 5.85991 0.571014 5.92591 0.571014 5.99472V8.63284C0.571012 8.66718 0.577819 8.70119 0.591049 8.73287C0.60428 8.76456 0.623672 8.79331 0.64809 8.81744C0.672507 8.84157 0.701468 8.86062 0.733297 8.87347C0.765127 8.88632 0.799193 8.89272 0.833513 8.89229Z" fill="white"/>
</svg>
