<svg width="8" height="16" viewBox="0 0 8 16" fill="none" xmlns="http://www.w3.org/2000/svg">
<path d="M0.24749 8.34065H1.90549V15.1687C1.90549 15.2334 1.9312 15.2954 1.97696 15.3412C2.02272 15.3869 2.08478 15.4127 2.14949 15.4127H4.96149C5.0262 15.4127 5.08826 15.3869 5.13402 15.3412C5.17978 15.2954 5.20549 15.2334 5.20549 15.1687V8.37265H7.11249C7.17229 8.37256 7.22997 8.35051 7.27458 8.31069C7.31919 8.27087 7.34763 8.21606 7.35449 8.15665L7.64449 5.64265C7.64843 5.60851 7.64512 5.57391 7.63477 5.54114C7.62441 5.50836 7.60724 5.47815 7.5844 5.45247C7.56155 5.42679 7.53353 5.40622 7.50218 5.39212C7.47083 5.37803 7.43685 5.37071 7.40248 5.37065H5.20248V3.79565C5.20248 3.32065 5.45849 3.07965 5.96249 3.07965H7.39848C7.4632 3.07965 7.52526 3.05395 7.57101 3.00819C7.61677 2.96243 7.64249 2.90037 7.64249 2.83565V0.528654C7.64302 0.464283 7.6181 0.402308 7.57315 0.35623C7.5282 0.310153 7.46685 0.283707 7.40248 0.282654L5.42149 0.282654H5.33049C4.41827 0.285873 3.53779 0.617831 2.85049 1.21765C2.52618 1.50107 2.27734 1.86062 2.12636 2.264C1.97538 2.66738 1.92697 3.10194 1.98549 3.52865V5.37165H0.244484C0.179771 5.37165 0.117712 5.39736 0.0719528 5.44312C0.0261939 5.48888 0.000488282 5.55094 0.000488282 5.61565V8.09665C0.000485841 8.12895 0.00689119 8.16093 0.0193405 8.19073C0.0317898 8.22053 0.0500371 8.24756 0.0730133 8.27026C0.0959895 8.29295 0.12324 8.31086 0.153191 8.32295C0.183141 8.33503 0.215196 8.34105 0.24749 8.34065Z" fill="#385C8E"/>
</svg>
