<svg width="16" height="13" viewBox="0 0 16 13" fill="none" xmlns="http://www.w3.org/2000/svg">
<path d="M15.5642 1.68952C15.0139 1.92965 14.4319 2.08929 13.8362 2.16352C14.4643 1.79106 14.9339 1.20113 15.1562 0.505523C14.5688 0.853891 13.9262 1.09942 13.2562 1.23152C12.845 0.791483 12.3109 0.48538 11.7234 0.353046C11.1358 0.220712 10.5221 0.268272 9.96194 0.489539C9.40182 0.710807 8.92125 1.09554 8.58278 1.59367C8.2443 2.0918 8.06359 2.68028 8.06415 3.28252C8.06196 3.51242 8.08544 3.74184 8.13415 3.96652C6.94078 3.90793 5.7732 3.59814 4.70775 3.05741C3.6423 2.51667 2.70296 1.75716 1.95115 0.828525C1.56505 1.48842 1.44546 2.27083 1.61682 3.01593C1.78818 3.76103 2.23756 4.4126 2.87315 4.83752C2.39844 4.82492 1.93371 4.69837 1.51815 4.46852V4.50152C1.51879 5.1938 1.75773 5.86474 2.19479 6.4016C2.63185 6.93846 3.2404 7.3085 3.91815 7.44952C3.66142 7.51762 3.39676 7.55125 3.13115 7.54952C2.94054 7.55299 2.7501 7.53589 2.56315 7.49852C2.75675 8.09348 3.1299 8.61386 3.63129 8.98812C4.13269 9.36237 4.7377 9.57212 5.36315 9.58852C4.30255 10.4172 2.99511 10.8671 1.64915 10.8665C1.40919 10.8682 1.16936 10.8545 0.931152 10.8255C2.30232 11.709 3.90001 12.1765 5.53115 12.1715C6.6544 12.1794 7.76801 11.9639 8.8073 11.5378C9.84658 11.1116 10.7908 10.4832 11.5852 9.68899C12.3796 8.89481 13.0082 7.95071 13.4346 6.91152C13.861 5.87233 14.0767 4.75877 14.0692 3.63552C14.0692 3.50252 14.0692 3.37452 14.0582 3.24752C14.6508 2.82417 15.1611 2.29618 15.5642 1.68952Z" fill="#03A9F4"/>
</svg>
