<svg width="18" height="13" viewBox="0 0 18 13" fill="none" xmlns="http://www.w3.org/2000/svg">
<path d="M17.862 1.53887C17.2121 1.7942 16.5247 1.96395 15.8211 2.04289C16.5629 1.64683 17.1176 1.01955 17.3801 0.279893C16.6864 0.650321 15.9274 0.911398 15.1361 1.05187C14.6505 0.583961 14.0196 0.258474 13.3257 0.11776C12.6318 -0.0229546 11.9069 0.0276176 11.2454 0.262897C10.5838 0.498176 10.0163 0.907269 9.61649 1.43695C9.21673 1.96662 9.00329 2.59237 9.00396 3.23275C9.00137 3.4772 9.0291 3.72115 9.08663 3.96006C7.67717 3.89776 6.29818 3.56836 5.03981 2.99338C3.78143 2.4184 2.67201 1.61079 1.78407 0.623349C1.32805 1.32503 1.18681 2.15699 1.3892 2.94928C1.59159 3.74156 2.12234 4.43439 2.87302 4.88622C2.31234 4.87282 1.76347 4.73825 1.27267 4.49385V4.52895C1.27342 5.26506 1.55562 5.97849 2.07182 6.54934C2.58802 7.1202 3.30676 7.51367 4.10724 7.66363C3.80401 7.73604 3.49143 7.77179 3.17773 7.76996C2.9526 7.77365 2.72769 7.75547 2.50688 7.71573C2.73554 8.34837 3.17626 8.9017 3.76844 9.29966C4.36062 9.69761 5.07518 9.92064 5.81388 9.93808C4.56124 10.8193 3.01706 11.2976 1.42739 11.297C1.14397 11.2988 0.860722 11.2842 0.579376 11.2534C2.19882 12.1929 4.0858 12.69 6.0123 12.6847C7.33894 12.693 8.65419 12.4639 9.88166 12.0108C11.1091 11.5576 12.2244 10.8894 13.1626 10.0449C14.1008 9.20044 14.8433 8.19655 15.3469 7.09155C15.8505 5.98656 16.1052 4.80248 16.0963 3.6081C16.0963 3.46668 16.0963 3.33058 16.0833 3.19553C16.7832 2.74537 17.386 2.18394 17.862 1.53887Z" fill="white"/>
</svg>
